<svg width="217" height="209" viewBox="0 0 217 209" fill="none" xmlns="http://www.w3.org/2000/svg">
<g filter="url(#filter0_d_30_2)">
<path fill-rule="evenodd" clip-rule="evenodd" d="M92.4346 200.295C86.952 199.144 83.054 197.516 78.6458 194.533C74.0439 191.42 10.8172 128.001 7.32529 122.996C-2.02747 109.591 -2.13496 92.3228 7.04693 78.433C8.90471 75.6235 73.7362 10.3915 77.2631 7.7839C90.9627 -2.34568 109.197 -2.39563 123.164 7.65849C127.897 11.0654 190.932 75.0638 193.543 79.1131C202.35 92.7699 202.312 109.224 193.443 122.544C192.089 124.577 181.14 135.864 158.2 158.872C121.631 195.549 121.48 195.684 113.067 198.907C107.572 201.013 98.7021 201.61 92.4346 200.295ZM107.313 191.934C111.295 190.91 115.391 188.827 119.652 185.658C123.126 183.075 168.6 137.756 168.6 136.877C168.6 135.789 129.942 136.075 128.554 137.173C127.654 137.885 121.894 147.363 117.679 155.066C115.271 159.468 115.013 159.527 98.4876 159.501C83.4702 159.476 85.6018 160.384 80.752 151.948C69.2535 131.944 69.8782 134.497 74.5155 126.473C76.3697 123.264 79.3577 118.057 81.1546 114.901C82.9515 111.745 84.7246 108.815 85.0943 108.39C85.9547 107.402 112.678 107.208 114.573 108.176C115.686 108.745 116.514 110.05 123.595 122.404C125.961 126.531 128.196 130.255 128.562 130.68C129.178 131.396 130.822 131.452 151.266 131.452H173.306L175.014 130.308C177.319 128.764 181.85 124.291 184.241 121.2C193.582 109.121 194.298 95.7451 186.281 83.1216C182.648 77.4027 126.88 21.6931 118.446 15.3594C105.76 5.8309 92.934 5.98639 80.5822 15.8193C77.8229 18.016 52.3069 42.9973 34.9881 60.4577C30.9425 64.5371 30.1611 64.3627 52.5107 64.3627H71.523L72.355 63.1489C72.8124 62.4816 75.5032 57.8634 78.334 52.8873C85.871 39.6373 83.4895 41.0005 99.1001 40.9989C116.308 40.9969 114.56 39.9238 123.785 56.1535C126.944 61.7133 129.53 66.5905 129.53 66.9922C129.53 67.6718 126.753 72.6647 118.649 86.5606C116.837 89.6658 115.002 92.3972 114.57 92.6297C113.132 93.4036 87.31 93.1701 86.1783 92.3733C84.6861 91.3221 78.5048 81.7426 76.0001 76.5988C72.1938 68.7821 74.0308 69.2618 47.808 69.2374L26.8862 69.218L24.5411 71.1394C6.7564 85.7098 3.58743 106.941 16.9199 122.2C21.5152 127.46 77.8112 183.964 80.4219 185.938C88.6501 192.157 98.1818 194.282 107.313 191.934ZM109.912 151.346C111.117 150.885 119.947 135.5 119.969 133.821C119.981 132.922 118.897 130.852 113.755 121.963C109.98 115.435 111.26 115.969 99.7075 116.107L89.8082 116.225L85.9927 123.066C83.8946 126.829 81.7691 130.551 81.2702 131.336C79.7927 133.661 79.7445 133.533 86.2599 144.694C90.7741 152.427 89.4735 151.756 99.9458 151.756C104.838 151.756 109.322 151.571 109.912 151.346ZM48.3824 119.646C47.8825 119.221 46.8025 117.681 45.9826 116.225C45.1628 114.768 43.1468 111.205 41.503 108.306C37.073 100.496 37.0558 100.768 42.5931 91.0086C45.0548 86.6707 47.6487 82.5751 48.3581 81.9078L49.647 80.6939L59.6274 80.6955C72.6121 80.6975 70.6671 79.3654 78.7832 93.8196C81.1896 98.1044 80.1426 97.9076 100.524 97.9076C121.154 97.9076 118.457 98.8823 123.88 89.4685C129.29 80.0771 128.108 80.6975 140.607 80.6955L150.587 80.6939L151.856 81.9078C152.554 82.5751 155.125 86.6351 157.57 90.929C162.419 99.4456 162.884 101.096 161.214 103.867C160.775 104.595 159.797 106.327 159.042 107.717C151.576 121.443 153.077 120.418 140.428 120.418H129.983L128.69 119.204C127.979 118.537 125.775 115.111 123.791 111.59C121.808 108.07 119.822 104.803 119.378 104.328C118.347 103.226 82.3679 102.963 81.0674 104.049C80.6866 104.366 78.5586 107.796 76.3393 111.669C74.12 115.543 71.8186 119.096 71.2259 119.565C69.652 120.81 49.8346 120.879 48.3824 119.646ZM112.196 80.9147C121.163 65.7407 120.607 67.3766 118.239 63.1107C112.956 53.5944 110.616 50.008 109.407 49.5767C106.622 48.5831 89.9958 49.4447 89.1952 50.6243C86.3502 54.8153 79.9306 66.7786 80.1512 67.4776C80.4113 68.3019 88.858 82.6505 89.6895 83.6813C90.0358 84.1106 92.501 84.2135 100.256 84.1228L110.37 84.004L112.196 80.9147Z" fill="#E5E5E5"/>
</g>
<defs>
<filter id="filter0_d_30_2" x="0.234863" y="0.1521" width="215.886" height="208.838" filterUnits="userSpaceOnUse" color-interpolation-filters="sRGB">
<feFlood flood-opacity="0" result="BackgroundImageFix"/>
<feColorMatrix in="SourceAlpha" type="matrix" values="0 0 0 0 0 0 0 0 0 0 0 0 0 0 0 0 0 0 127 0" result="hardAlpha"/>
<feOffset dx="12" dy="4"/>
<feGaussianBlur stdDeviation="2"/>
<feComposite in2="hardAlpha" operator="out"/>
<feColorMatrix type="matrix" values="0 0 0 0 0 0 0 0 0 0 0 0 0 0 0 0 0 0 0.25 0"/>
<feBlend mode="normal" in2="BackgroundImageFix" result="effect1_dropShadow_30_2"/>
<feBlend mode="normal" in="SourceGraphic" in2="effect1_dropShadow_30_2" result="shape"/>
</filter>
</defs>
</svg>
