<svg width="581" height="83" viewBox="0 0 581 83" fill="none" xmlns="http://www.w3.org/2000/svg">
  <g filter="url(#filter0_d_1_19)">
    <path d="M0.287959 64.5515V1.55151H17.748L49.788 39.8915H41.688V1.55151H62.388V64.5515H44.928L12.888 26.2115H20.988V64.5515H0.287959ZM86.6619 24.9515H114.742V40.2515H86.6619V24.9515ZM88.1019 48.5315H119.602V64.5515H67.2219V1.55151H118.432V17.5715H88.1019V48.5315ZM116.089 64.5515L144.169 25.3115L144.079 40.1615L116.899 1.55151H140.749L156.589 24.9515L146.419 25.0415L161.899 1.55151H184.759L157.579 39.3515V24.5915L186.109 64.5515H161.809L145.969 40.0715L155.779 39.9815L140.299 64.5515H116.089ZM214.365 65.9915C204.705 65.9915 197.175 63.3815 191.775 58.1615C186.375 52.9415 183.675 45.6215 183.675 36.2015V1.55151H204.915V35.5715C204.915 40.3715 205.785 43.7915 207.525 45.8315C209.265 47.8115 211.605 48.8015 214.545 48.8015C217.545 48.8015 219.885 47.8115 221.565 45.8315C223.305 43.7915 224.175 40.3715 224.175 35.5715V1.55151H245.055V36.2015C245.055 45.6215 242.355 52.9415 236.955 58.1615C231.555 63.3815 224.025 65.9915 214.365 65.9915ZM272.881 65.9915C267.601 65.9915 262.501 65.3915 257.581 64.1915C252.661 62.9915 248.611 61.4315 245.431 59.5115L252.271 44.0315C255.271 45.7715 258.601 47.1815 262.261 48.2615C265.981 49.2815 269.581 49.7915 273.061 49.7915C275.101 49.7915 276.691 49.6715 277.831 49.4315C279.031 49.1315 279.901 48.7415 280.441 48.2615C280.981 47.7215 281.251 47.0915 281.251 46.3715C281.251 45.2315 280.621 44.3315 279.361 43.6715C278.101 43.0115 276.421 42.4715 274.321 42.0515C272.281 41.5715 270.031 41.0915 267.571 40.6115C265.111 40.0715 262.621 39.3815 260.101 38.5415C257.641 37.7015 255.361 36.5915 253.261 35.2115C251.221 33.8315 249.571 32.0315 248.311 29.8115C247.051 27.5315 246.421 24.7115 246.421 21.3515C246.421 17.4515 247.501 13.9115 249.661 10.7315C251.881 7.49151 255.151 4.91151 259.471 2.99151C263.851 1.07151 269.281 0.111512 275.761 0.111512C280.021 0.111512 284.221 0.561511 288.361 1.46151C292.501 2.36151 296.221 3.74151 299.521 5.60151L293.131 20.9915C290.011 19.4315 286.981 18.2615 284.041 17.4815C281.161 16.7015 278.341 16.3115 275.581 16.3115C273.541 16.3115 271.921 16.4915 270.721 16.8515C269.521 17.2115 268.651 17.6915 268.111 18.2915C267.631 18.8915 267.391 19.5515 267.391 20.2715C267.391 21.3515 268.021 22.2215 269.281 22.8815C270.541 23.4815 272.191 23.9915 274.231 24.4115C276.331 24.8315 278.611 25.2815 281.071 25.7615C283.591 26.2415 286.081 26.9015 288.541 27.7415C291.001 28.5815 293.251 29.6915 295.291 31.0715C297.391 32.4515 299.071 34.2515 300.331 36.4715C301.591 38.6915 302.221 41.4515 302.221 44.7515C302.221 48.5915 301.111 52.1315 298.891 55.3715C296.731 58.5515 293.491 61.1315 289.171 63.1115C284.851 65.0315 279.421 65.9915 272.881 65.9915ZM357.304 65.9915C352.264 65.9915 347.584 65.2115 343.264 63.6515C339.004 62.0315 335.284 59.7515 332.104 56.8115C328.984 53.8715 326.554 50.3915 324.814 46.3715C323.074 42.3515 322.204 37.9115 322.204 33.0515C322.204 28.1915 323.074 23.7515 324.814 19.7315C326.554 15.7115 328.984 12.2315 332.104 9.29151C335.284 6.35151 339.004 4.10151 343.264 2.54151C347.584 0.921512 352.264 0.111512 357.304 0.111512C363.484 0.111512 368.944 1.19151 373.684 3.35151C378.484 5.51151 382.444 8.63151 385.564 12.7115L372.154 24.6815C370.294 22.3415 368.224 20.5415 365.944 19.2815C363.724 17.9615 361.204 17.3015 358.384 17.3015C356.164 17.3015 354.154 17.6615 352.354 18.3815C350.554 19.1015 348.994 20.1515 347.674 21.5315C346.414 22.9115 345.424 24.5915 344.704 26.5715C343.984 28.4915 343.624 30.6515 343.624 33.0515C343.624 35.4515 343.984 37.6415 344.704 39.6215C345.424 41.5415 346.414 43.1915 347.674 44.5715C348.994 45.9515 350.554 47.0015 352.354 47.7215C354.154 48.4415 356.164 48.8015 358.384 48.8015C361.204 48.8015 363.724 48.1715 365.944 46.9115C368.224 45.5915 370.294 43.7615 372.154 41.4215L385.564 53.3915C382.444 57.4115 378.484 60.5315 373.684 62.7515C368.944 64.9115 363.484 65.9915 357.304 65.9915ZM418.008 65.9915C412.908 65.9915 408.168 65.1815 403.788 63.5615C399.468 61.9415 395.718 59.6615 392.538 56.7215C389.358 53.7215 386.868 50.2115 385.068 46.1915C383.328 42.1715 382.458 37.7915 382.458 33.0515C382.458 28.2515 383.328 23.8715 385.068 19.9115C386.868 15.8915 389.358 12.4115 392.538 9.47151C395.718 6.47151 399.468 4.16151 403.788 2.54151C408.168 0.921512 412.908 0.111512 418.008 0.111512C423.168 0.111512 427.908 0.921512 432.228 2.54151C436.548 4.16151 440.298 6.47151 443.478 9.47151C446.658 12.4115 449.118 15.8915 450.858 19.9115C452.658 23.8715 453.558 28.2515 453.558 33.0515C453.558 37.7915 452.658 42.1715 450.858 46.1915C449.118 50.2115 446.658 53.7215 443.478 56.7215C440.298 59.6615 436.548 61.9415 432.228 63.5615C427.908 65.1815 423.168 65.9915 418.008 65.9915ZM418.008 48.8015C419.988 48.8015 421.818 48.4415 423.498 47.7215C425.238 47.0015 426.738 45.9815 427.998 44.6615C429.318 43.2815 430.338 41.6315 431.058 39.7115C431.778 37.7315 432.138 35.5115 432.138 33.0515C432.138 30.5915 431.778 28.4015 431.058 26.4815C430.338 24.5015 429.318 22.8515 427.998 21.5315C426.738 20.1515 425.238 19.1015 423.498 18.3815C421.818 17.6615 419.988 17.3015 418.008 17.3015C416.028 17.3015 414.168 17.6615 412.428 18.3815C410.748 19.1015 409.248 20.1515 407.928 21.5315C406.668 22.8515 405.678 24.5015 404.958 26.4815C404.238 28.4015 403.878 30.5915 403.878 33.0515C403.878 35.5115 404.238 37.7315 404.958 39.7115C405.678 41.6315 406.668 43.2815 407.928 44.6615C409.248 45.9815 410.748 47.0015 412.428 47.7215C414.168 48.4415 416.028 48.8015 418.008 48.8015ZM455.867 64.5515V1.55151H486.197C492.077 1.55151 497.147 2.51151 501.407 4.43151C505.727 6.35151 509.057 9.11151 511.397 12.7115C513.737 16.2515 514.907 20.4515 514.907 25.3115C514.907 30.1715 513.737 34.3715 511.397 37.9115C509.057 41.3915 505.727 44.0615 501.407 45.9215C497.147 47.7815 492.077 48.7115 486.197 48.7115H467.657L477.107 39.9815V64.5515H455.867ZM493.577 64.5515L478.097 41.6015H500.597L516.257 64.5515H493.577ZM477.107 42.3215L467.657 32.6915H484.847C487.787 32.6915 489.947 32.0315 491.327 30.7115C492.767 29.3915 493.487 27.5915 493.487 25.3115C493.487 23.0315 492.767 21.2315 491.327 19.9115C489.947 18.5915 487.787 17.9315 484.847 17.9315H467.657L477.107 8.30151V42.3215ZM536.968 24.9515H565.048V40.2515H536.968V24.9515ZM538.408 48.5315H569.908V64.5515H517.528V1.55151H568.738V17.5715H538.408V48.5315Z" fill="#E9E9E9"/>
  </g>
  <defs>
    <filter id="filter0_d_1_19" x="0.287964" y="0.111572" width="580.62" height="82.8799" filterUnits="userSpaceOnUse" color-interpolation-filters="sRGB">
      <feFlood flood-opacity="0" result="BackgroundImageFix"/>
      <feColorMatrix in="SourceAlpha" type="matrix" values="0 0 0 0 0 0 0 0 0 0 0 0 0 0 0 0 0 0 127 0" result="hardAlpha"/>
      <feOffset dx="7" dy="13"/>
      <feGaussianBlur stdDeviation="2"/>
      <feComposite in2="hardAlpha" operator="out"/>
      <feColorMatrix type="matrix" values="0 0 0 0 0 0 0 0 0 0 0 0 0 0 0 0 0 0 0.25 0"/>
      <feBlend mode="normal" in2="BackgroundImageFix" result="effect1_dropShadow_1_19"/>
      <feBlend mode="normal" in="SourceGraphic" in2="effect1_dropShadow_1_19" result="shape"/>
    </filter>
  </defs>
</svg>
